<?xml version="1.0" encoding="UTF-8" standalone="no"?>
<svg
   xmlns:dc="http://purl.org/dc/elements/1.1/"
   xmlns:cc="http://creativecommons.org/ns#"
   xmlns:rdf="http://www.w3.org/1999/02/22-rdf-syntax-ns#"
   xmlns:svg="http://www.w3.org/2000/svg"
   xmlns="http://www.w3.org/2000/svg"
   id="svg8"
   version="1.1"
   viewBox="0 0 262.00595 58.227772"
   height="58.227772mm"
   width="262.00595mm">
  <defs
     id="defs2" />
  <metadata
     id="metadata5">
    <rdf:RDF>
      <cc:Work
         rdf:about="">
        <dc:format>image/svg+xml</dc:format>
        <dc:type
           rdf:resource="http://purl.org/dc/dcmitype/StillImage" />
        <dc:title></dc:title>
      </cc:Work>
    </rdf:RDF>
  </metadata>
  <g
     transform="translate(-17.679046,-191.72917)"
     id="layer1">
    <g
       transform="translate(45.85399,115.80757)"
       id="g1161">
      <path
         id="path1165"
         d="m 62.508189,126.10324 c -0.232833,-0.0438 -0.778154,-0.17565 -1.211817,-0.29312 -0.729987,-0.19774 -0.803571,-0.2037 -0.991853,-0.0803 -0.294953,0.19326 -0.536761,0.16967 -0.586689,-0.0572 -0.02306,-0.10478 -0.119482,-0.762 -0.214266,-1.4605 -0.09478,-0.6985 -0.185657,-1.35573 -0.201947,-1.4605 -0.0234,-0.15054 0.01091,-0.1905 0.163508,-0.1905 0.156227,0 0.219651,0.0799 0.331953,0.41798 0.79447,2.39192 3.715139,3.43532 5.675444,2.02754 0.681117,-0.48914 0.988805,-1.08749 0.996323,-1.93752 0.01067,-1.20587 -0.610125,-1.8917 -3.339431,-3.68931 -3.026435,-1.9933 -3.669225,-2.76347 -3.669225,-4.39636 0,-1.30206 0.522182,-2.13198 1.717083,-2.72904 1.071431,-0.53535 2.865754,-0.60478 4.209584,-0.16286 0.714663,0.23501 1.098677,0.28045 1.185333,0.14023 0.07485,-0.12109 0.464422,-0.10478 0.505477,0.0212 0.01897,0.0582 0.106392,0.66781 0.194259,1.35467 l 0.159749,1.24883 -0.175742,-1.7e-4 c -0.127932,-1.7e-4 -0.244848,-0.13255 -0.429743,-0.48666 -1.458696,-2.79371 -5.805102,-2.73872 -5.798837,0.0733 0.002,0.90834 0.738048,1.79574 2.36612,2.85275 2.487024,1.61466 2.960176,1.95071 3.483754,2.47429 2.253869,2.25387 1.314484,5.45849 -1.836267,6.26432 -0.70535,0.1804 -1.783546,0.20977 -2.53277,0.069 z m 72.982661,0 c -0.23283,-0.0438 -0.77815,-0.17565 -1.21181,-0.29312 -0.72999,-0.19774 -0.80357,-0.2037 -0.99186,-0.0803 -0.17026,0.11156 -0.53372,0.18512 -0.55382,0.11209 -0.003,-0.0116 -0.11018,-0.75642 -0.23772,-1.65506 l -0.23191,-1.63388 0.20249,0.0252 c 0.16145,0.0201 0.23556,0.11963 0.3656,0.49089 0.74071,2.11476 3.16127,3.16396 5.13991,2.22791 0.94813,-0.44854 1.48202,-1.24576 1.49201,-2.22791 0.0122,-1.2017 -0.60882,-1.88692 -3.33883,-3.68386 -3.04239,-2.00255 -3.68206,-2.76725 -3.68206,-4.40181 0,-1.04307 0.2911,-1.69483 1.01341,-2.269 1.18052,-0.93841 3.1795,-1.19169 4.91326,-0.62252 0.71488,0.23469 1.09874,0.27997 1.18533,0.13985 0.0288,-0.0466 0.15759,-0.0847 0.28624,-0.0847 h 0.23391 l 0.14873,1.2065 c 0.0818,0.66357 0.16736,1.27317 0.19014,1.35466 0.0308,0.11043 -0.009,0.14812 -0.15481,0.14797 -0.15285,-1.7e-4 -0.25234,-0.10771 -0.45021,-0.48667 -1.26263,-2.4182 -4.84542,-2.83401 -5.67616,-0.65877 -0.44877,1.1751 0.22866,2.25487 2.24716,3.58177 0.53552,0.35203 1.39277,0.91619 1.905,1.25367 2.13124,1.40418 2.91014,2.54653 2.8096,4.12063 -0.15391,2.40958 -2.71371,3.97938 -5.6036,3.43643 z m -29.13918,-5.85018 c -3.03445,-3.17772 -5.61685,-5.8711 -5.73866,-5.98529 l -0.22149,-0.20761 0.0237,5.24528 c 0.0218,4.8281 0.0356,5.26704 0.17326,5.51901 0.20506,0.3752 0.57648,0.54446 1.32913,0.60569 0.57859,0.0471 0.64046,0.0696 0.665,0.24241 l 0.0271,0.1905 h -2.54588 c -2.481285,0 -2.545895,-0.004 -2.545895,-0.16773 0,-0.17171 0.07912,-0.20429 0.696282,-0.28677 0.461332,-0.0617 0.754067,-0.22803 0.972727,-0.55286 l 0.193658,-0.28769 v -5.77782 -5.77782 l -0.399254,-0.18767 c -0.219592,-0.10322 -0.638692,-0.22735 -0.931333,-0.27584 -0.429743,-0.0712 -0.53208,-0.11833 -0.53208,-0.24499 0,-0.14765 0.103624,-0.15681 1.773301,-0.15681 h 1.773294 l 5.13905,5.35516 c 2.82647,2.94534 5.17295,5.36828 5.2144,5.38429 0.0437,0.0169 0.0653,-1.97885 0.0515,-4.74514 -0.022,-4.39467 -0.0357,-4.79239 -0.17322,-5.00211 -0.23786,-0.36287 -0.50391,-0.48573 -1.28142,-0.59176 -0.60433,-0.0824 -0.72824,-0.12492 -0.72824,-0.24987 0,-0.14103 0.1637,-0.15057 2.58234,-0.15057 2.4593,0 2.58233,0.007 2.58233,0.15717 0,0.1332 -0.0922,0.16575 -0.60462,0.21337 -0.77197,0.0718 -1.15985,0.25373 -1.3108,0.61499 -0.0955,0.22848 -0.11658,1.4223 -0.11658,6.58941 v 6.31039 l -0.27517,-8.5e-4 c -0.25352,-7.6e-4 -0.70901,-0.45515 -5.79235,-5.7785 z m -54.469147,5.39832 c 0,-0.18782 0.03577,-0.21188 0.3175,-0.21353 0.469133,-0.003 0.999371,-0.27481 1.179718,-0.60532 0.14312,-0.26228 0.155577,-0.64871 0.179687,-5.57348 0.01425,-2.91042 0.0013,-5.46082 -0.02876,-5.66757 -0.08003,-0.55031 -0.45378,-0.89296 -1.125287,-1.03165 -0.407037,-0.0841 -0.522854,-0.14175 -0.522854,-0.26039 0,-0.14357 0.156832,-0.15239 2.709333,-0.15239 2.584966,0 2.709333,0.007 2.709333,0.15748 0,0.12872 -0.08549,0.16632 -0.467952,0.20579 -0.664475,0.0686 -1.064,0.28763 -1.267714,0.69506 -0.162969,0.32594 -0.170246,0.5341 -0.193608,5.53845 -0.01651,3.53613 0.0054,5.34293 0.06861,5.64722 0.147833,0.7121 0.553584,0.99709 1.521994,1.06899 0.234636,0.0174 0.301963,0.0617 0.323392,0.21251 l 0.02705,0.1905 h -2.715221 -2.715222 z m 17.695333,0.054 c 0,-0.13505 0.09384,-0.16616 0.654541,-0.21697 0.804452,-0.0729 1.15443,-0.23022 1.328581,-0.59721 0.221047,-0.46583 0.196342,-11.20071 -0.02691,-11.69225 -0.194463,-0.42815 -0.590203,-0.63358 -1.335871,-0.69343 -0.450723,-0.0362 -0.535678,-0.068 -0.535678,-0.20074 0,-0.15115 0.136288,-0.15774 3.259667,-0.15774 3.139601,0 3.259667,0.006 3.259667,0.15996 0,0.14484 -0.08611,0.16316 -0.910167,0.19372 -1.051687,0.039 -1.352414,0.14993 -1.566198,0.57775 -0.239412,0.47908 -0.226873,11.48336 0.01342,11.78035 0.160536,0.19842 0.176479,0.20009 2.180166,0.22761 2.557179,0.0351 2.735479,8.7e-4 3.441074,-0.66123 0.288586,-0.2708 0.734255,-0.78091 0.990371,-1.13356 0.345635,-0.47592 0.516221,-0.64181 0.661789,-0.64357 0.197807,-0.002 -0.176446,0.81267 -1.272117,2.77047 l -0.248767,0.4445 h -4.946786 c -4.768198,0 -4.946785,-0.006 -4.946785,-0.15766 z m 11.938,-0.054 c 0,-0.19396 0.03141,-0.21167 0.375488,-0.21167 0.721775,0 1.104222,-0.26158 1.485485,-1.016 0.52291,-1.03472 4.503013,-12.10492 4.445787,-12.36546 l -0.05488,-0.24987 h 0.929005 c 0.806306,0 0.936634,0.0196 0.986782,0.14817 0.03178,0.0815 1.105086,2.92946 2.385111,6.32883 1.280033,3.39937 2.419993,6.32248 2.533252,6.4958 0.249275,0.38151 0.608228,0.57936 1.177027,0.64879 0.358885,0.0438 0.430903,0.0823 0.45367,0.24258 l 0.02705,0.1905 h -3.011551 c -2.907936,0 -3.01156,-0.006 -3.01156,-0.16174 0,-0.14271 0.08711,-0.16815 0.740833,-0.21632 0.941147,-0.0694 1.300286,-0.19455 1.449849,-0.50539 0.147676,-0.30693 0.10729,-0.44841 -0.895849,-3.13822 l -0.757818,-2.032 h -2.317191 -2.317199 l -0.836422,2.24367 c -0.868265,2.32909 -0.967325,2.74878 -0.714723,3.0279 0.172831,0.19098 0.678384,0.35837 1.086342,0.35969 0.588975,0.002 0.921512,0.0972 0.921512,0.26415 0,0.15105 -0.115714,0.15826 -2.54,0.15826 h -2.54 z m 8.805333,-6.92418 c 0,-0.1125 -1.720799,-4.71498 -1.847528,-4.94144 -0.06625,-0.11838 -1.878415,4.65249 -1.877966,4.94412 0,0.0815 0.429226,0.10583 1.862827,0.10583 1.458231,0 1.862667,-0.0236 1.862667,-0.10851 z m 25.315331,6.97812 c 0,-0.14277 0.075,-0.17703 0.48684,-0.22246 1.03971,-0.11469 1.38577,-0.31083 1.54222,-0.87409 0.055,-0.19803 0.0862,-2.27654 0.0853,-5.68839 -10e-4,-5.09904 -0.01,-5.3946 -0.16221,-5.73055 -0.20813,-0.45842 -0.55365,-0.63568 -1.33829,-0.68657 -0.52118,-0.0338 -0.61384,-0.0629 -0.61384,-0.19302 0,-0.0843 0.0286,-0.17071 0.0635,-0.19212 0.19125,-0.1172 7.00247,-0.24698 8.03103,-0.15302 3.67432,0.33564 5.93194,1.80214 6.86233,4.45761 0.37978,1.08395 0.35763,3.12113 -0.0467,4.29629 -0.88225,2.56416 -2.80861,4.24229 -5.68149,4.9494 -0.45726,0.11254 -1.28417,0.14139 -4.8895,0.17057 -4.28955,0.0347 -4.33917,0.0332 -4.33917,-0.13365 z m 7.89657,-0.35247 c 3.04231,-0.36655 5.12982,-2.80643 5.28616,-6.17847 0.15616,-3.36827 -1.52473,-5.77537 -4.58906,-6.57173 -0.88413,-0.22976 -3.5849,-0.38706 -4.31006,-0.25101 l -0.30427,0.0571 v 6.22473 c 0,6.45388 1e-5,6.45417 0.36177,6.65095 0.38536,0.20963 2.10839,0.2428 3.55546,0.0684 z M 53.321856,110.24601 c 0,-0.20884 2.316223,-3.1819 2.658024,-3.4118 1.117102,-0.75135 1.888381,0.18318 0.924925,1.1207 -0.672018,0.65391 -3.582949,2.5153 -3.582949,2.2911 z m 8.990262,-6.39745 c -1.028708,-0.15171 -1.665842,-0.75679 -1.458476,-1.38511 0.245914,-0.74512 0.794376,-0.79242 1.744607,-0.15046 0.351951,0.23777 0.788221,0.47224 0.969501,0.52105 0.771466,0.20774 1.526125,-0.286 1.882953,-1.23192 l 0.190153,-0.50407 v -7.408337 c 0,-7.296062 -0.0026,-7.412823 -0.172212,-7.704666 -0.236381,-0.406748 -0.63997,-0.592374 -1.288288,-0.592535 -0.507966,-8.5e-5 -0.529167,-0.0086 -0.529167,-0.211798 v -0.211667 h 2.794 2.794 v 0.211667 c 0,0.182262 -0.03823,0.211731 -0.275167,0.212139 -0.460197,7.62e-4 -0.864548,0.154321 -1.126642,0.427781 l -0.249191,0.259991 -0.05077,5.942378 c -0.05572,6.521478 -0.07238,6.755147 -0.592684,8.310717 -0.852712,2.54942 -2.53321,3.82444 -4.632613,3.51484 z m 67.462082,0.002 c -0.92013,-0.11692 -1.52234,-0.55956 -1.52234,-1.11896 0,-0.4251 0.1096,-0.62498 0.43495,-0.79323 0.34742,-0.17965 0.57364,-0.11343 1.35409,0.39639 0.81567,0.53282 1.1572,0.63379 1.66395,0.49191 0.78317,-0.21928 1.22514,-0.98932 1.37295,-2.39206 0.0991,-0.940468 0.10577,-12.722803 0.008,-13.56803 -0.12864,-1.10852 -0.42057,-1.411279 -1.40892,-1.461189 -0.59974,-0.03029 -0.63071,-0.04179 -0.63071,-0.234261 v -0.202413 h 2.794 2.794 v 0.200894 c 0,0.177851 -0.0462,0.205337 -0.40295,0.239614 -0.50668,0.04869 -0.84446,0.212065 -1.0711,0.518076 -0.17446,0.235556 -0.17762,0.32313 -0.2244,6.223 -0.0404,5.090104 -0.0684,6.092179 -0.18792,6.707655 -0.68281,3.517064 -2.46956,5.310754 -4.97328,4.992614 z M 77.028522,99.01894 c -4.714299,-0.586773 -7.528492,-4.201982 -6.639212,-8.528963 1.52681,-7.428981 13.504638,-7.900631 15.498029,-0.610264 0.201803,0.738068 0.202836,2.51053 0.0019,3.344334 -0.939563,3.899662 -4.640648,6.320155 -8.860765,5.794893 z m 3.021787,-0.637982 c 3.259896,-0.849097 4.937955,-5.405317 3.406157,-9.248328 -1.925768,-4.831424 -8.244823,-5.398907 -10.394568,-0.933485 -0.628286,1.305062 -0.733544,1.800168 -0.726313,3.416235 0.0069,1.555715 0.181559,2.318377 0.805163,3.517019 1.346454,2.588052 4.233739,3.945521 6.909561,3.248559 z m 28.177881,0.638137 c -0.23283,-0.03815 -0.85485,-0.175587 -1.38224,-0.30541 -0.92599,-0.227938 -0.96765,-0.231028 -1.21337,-0.09001 -0.21839,0.125341 -0.49472,0.194612 -0.49472,0.124018 0,-0.01211 -0.0948,-0.688384 -0.21054,-1.502834 -0.26261,-1.847137 -0.26328,-1.881335 -0.0364,-1.846537 0.12781,0.0196 0.22017,0.151847 0.33541,0.480247 0.59149,1.685628 2.16959,2.746674 3.88895,2.614773 2.08957,-0.160302 3.34344,-1.953008 2.51267,-3.592457 -0.35395,-0.698479 -1.08498,-1.323767 -3.14576,-2.690692 -3.01905,-2.002553 -3.64067,-2.747117 -3.64067,-4.360702 0,-0.711524 0.0278,-0.862768 0.2371,-1.288935 0.83445,-1.699261 3.20729,-2.354679 5.72699,-1.581893 0.84876,0.26031 0.89387,0.265537 1.1287,0.130764 0.50264,-0.288476 0.52602,-0.253784 0.69001,1.023784 0.0822,0.640291 0.16967,1.268941 0.1944,1.397 0.0855,0.442925 -0.2773,0.301331 -0.53599,-0.209162 -1.08066,-2.132588 -4.02415,-2.883665 -5.35882,-1.367391 -1.1235,1.276369 -0.48704,2.671282 1.93928,4.250232 2.76699,1.800646 3.18396,2.112149 3.78676,2.828997 1.22184,1.453009 1.11381,3.622858 -0.24101,4.840966 -1.04198,0.936821 -2.69285,1.389049 -4.18075,1.145239 z m 74.84533,0 c -0.23283,-0.03815 -0.85484,-0.175587 -1.38224,-0.30541 -0.92599,-0.227938 -0.96765,-0.231028 -1.21337,-0.09001 -0.21839,0.125341 -0.49472,0.194612 -0.49472,0.124018 0,-0.01211 -0.0947,-0.688384 -0.21053,-1.502834 -0.26006,-1.829177 -0.26078,-1.861815 -0.0408,-1.861815 0.0946,0 0.19294,0.06667 0.21855,0.148166 0.61546,1.958425 2.16585,3.103622 4.01021,2.962132 2.08957,-0.160302 3.34344,-1.953008 2.51268,-3.592457 -0.35395,-0.698479 -1.08499,-1.323767 -3.14577,-2.690692 -3.01904,-2.002553 -3.64067,-2.747117 -3.64067,-4.360702 0,-0.711524 0.0278,-0.862768 0.2371,-1.288935 0.83624,-1.702904 3.20189,-2.356335 5.72699,-1.581893 0.84876,0.26031 0.89387,0.265537 1.1287,0.130764 0.50264,-0.288476 0.52602,-0.253784 0.69001,1.023784 0.0822,0.640291 0.16967,1.268941 0.1944,1.397 0.0855,0.442925 -0.2773,0.301331 -0.53599,-0.209162 -1.08066,-2.132588 -4.02414,-2.883665 -5.35882,-1.367391 -1.1235,1.276369 -0.48704,2.671282 1.93928,4.250232 2.76699,1.800646 3.18396,2.112149 3.78676,2.828997 1.22184,1.453009 1.11382,3.622858 -0.24101,4.840966 -1.04198,0.936821 -2.69285,1.389049 -4.18075,1.145239 z m 42.43395,-6.093343 c -3.11119,-3.258588 -5.69437,-5.924705 -5.74041,-5.924705 -0.0545,0 -0.0748,1.793771 -0.0583,5.1435 0.0239,4.84233 0.0348,5.162338 0.18522,5.465223 0.21513,0.433069 0.66669,0.653872 1.45992,0.713863 0.58554,0.04428 0.62393,0.05946 0.62393,0.246634 v 0.199446 h -2.54 -2.54 v -0.20073 c 0,-0.182171 0.0463,-0.205966 0.50045,-0.25735 0.59406,-0.06721 1.00562,-0.314348 1.21392,-0.728941 0.13655,-0.27178 0.14805,-0.736881 0.14817,-5.993162 v -5.698518 l -0.46542,-0.213074 c -0.25598,-0.11719 -0.67508,-0.234713 -0.93133,-0.261161 -0.41959,-0.0433 -0.46592,-0.06796 -0.46592,-0.247908 v -0.199822 h 1.73158 1.73156 l 4.08498,4.2545 c 2.24673,2.339975 4.59263,4.781802 5.21311,5.426282 l 1.12815,1.171782 -0.0232,-4.867108 c -0.0225,-4.729388 -0.028,-4.872394 -0.19232,-5.05395 -0.27671,-0.305676 -0.61862,-0.435309 -1.28007,-0.485335 -0.58677,-0.04438 -0.62514,-0.05952 -0.62514,-0.246725 v -0.199446 h 2.58234 2.58233 v 0.211667 c 0,0.201181 -0.0241,0.21169 -0.48683,0.212139 -0.67657,6.77e-4 -1.07398,0.129879 -1.32806,0.431834 l -0.21711,0.258019 v 6.385837 6.385837 l -0.3175,-0.002 c -0.30928,-0.0019 -0.46393,-0.155326 -5.97421,-5.926666 z M 51.882523,98.569423 c 0,-0.187741 0.03762,-0.202981 0.600409,-0.24325 0.743752,-0.05321 1.011002,-0.227503 1.14961,-0.749726 0.117837,-0.443959 0.148629,-10.73196 0.0339,-11.325869 -0.116863,-0.604955 -0.39089,-0.806361 -1.149213,-0.844654 -0.6039,-0.0305 -0.634706,-0.04188 -0.634706,-0.234464 v -0.202413 h 2.709333 2.709333 v 0.211667 c 0,0.202452 -0.0223,0.211666 -0.512208,0.211666 -0.999507,0 -1.265792,0.339343 -1.265792,1.613084 v 0.771855 l 0.910167,-0.05689 c 2.970386,-0.185669 5.239503,0.704033 6.001232,2.353038 0.401896,0.870041 0.367157,2.400557 -0.07479,3.294446 -0.536803,1.085773 -1.551669,1.857419 -2.941946,2.236893 -0.582312,0.158941 -3.046971,0.225577 -3.6195,0.09786 l -0.275167,-0.06138 5.08e-4,0.738717 c 9.82e-4,1.537697 0.41005,1.964694 1.883361,1.96591 0.553026,4.24e-4 0.5715,0.0073 0.5715,0.212139 v 0.211667 h -3.048 -3.048 v -0.20029 z m 5.588,-3.19075 c 2.037757,-0.324962 3.296716,-1.936418 3.199993,-4.09598 -0.07703,-1.719865 -0.908067,-2.742134 -2.508123,-3.085285 -0.469781,-0.100751 -2.124003,-0.129347 -2.448704,-0.04233 l -0.1905,0.05105 v 3.536514 3.536515 l 0.486834,0.08341 c 0.670983,0.114961 0.829623,0.11671 1.4605,0.01611 z m 30.310666,3.20024 c 0,-0.199011 0.03007,-0.211932 0.585817,-0.251695 0.687832,-0.04921 1.06923,-0.240806 1.316186,-0.661167 0.162983,-0.277423 0.17233,-0.431142 0.17233,-2.833338 v -2.54 l -1.037166,-0.02377 -1.037167,-0.02377 v -0.420727 -0.420728 h 1.058333 1.058333 l -0.0037,-2.391833 c -0.0052,-3.316125 -0.09694,-3.545878 -1.44134,-3.60693 -0.631122,-0.02866 -0.671618,-0.04199 -0.671618,-0.221103 0,-0.25224 0.404207,-0.28289 4.656667,-0.353103 4.344009,-0.07172 5.432128,0.08494 7.323666,1.054411 4.89152,2.507058 4.11648,9.843416 -1.285367,12.166929 -1.386095,0.596206 -1.85983,0.646601 -6.525133,0.69413 l -4.169833,0.04248 v -0.209782 z m 7.622218,-0.319067 c 1.802113,-0.217359 3.04502,-0.874022 4.086818,-2.159184 2.015845,-2.486736 1.937645,-6.702647 -0.165676,-8.932283 -0.949249,-1.006253 -1.93007,-1.511174 -3.553164,-1.829155 -0.797069,-0.156154 -3.780078,-0.22271 -3.989696,-0.08902 -0.08145,0.05195 -0.105834,0.768545 -0.105834,3.110504 v 3.043002 h 1.989667 1.989667 v 0.421773 0.421773 l -1.9685,0.02273 -1.9685,0.02273 v 2.764049 c 0,3.123426 -0.01758,3.039207 0.666657,3.192976 0.483616,0.108682 2.154893,0.114279 3.018561,0.01011 z m 19.725113,0.309335 c 0,-0.189215 0.0353,-0.202799 0.62554,-0.240677 0.76072,-0.04882 1.13019,-0.239543 1.36413,-0.704148 0.16411,-0.325929 0.16933,-0.504857 0.16933,-5.797309 0,-5.308728 -0.005,-5.469016 -0.16933,-5.748483 -0.29534,-0.501411 -0.56541,-0.639435 -1.31805,-0.673614 -0.64353,-0.02922 -0.67162,-0.03898 -0.67162,-0.233202 v -0.202701 h 2.96334 2.96333 v 0.211667 c 0,0.198558 -0.0272,0.211666 -0.43894,0.211666 -0.55486,0 -1.0774,0.24628 -1.29857,0.612035 -0.15599,0.257948 -0.16925,0.462363 -0.19312,2.977113 -0.0141,1.48508 -0.007,2.749061 0.0161,2.808844 0.0646,0.168238 0.97525,-0.07481 1.69389,-0.452077 0.91079,-0.478139 2.2657,-1.902818 3.35806,-3.530987 1.1078,-1.651191 1.0741,-2.322829 -0.12034,-2.398885 -0.52542,-0.03346 -0.56174,-0.04882 -0.56174,-0.237573 v -0.201803 h 2.87867 2.87866 v 0.211667 c 0,0.199889 -0.0257,0.211666 -0.4615,0.211666 -1.45693,0 -2.22528,0.460003 -3.18196,1.905 -1.14833,1.734479 -2.42309,3.271796 -3.2992,3.978721 -0.16298,0.13151 -0.25221,0.254131 -0.19828,0.27249 0.56737,0.193149 2.47497,2.084737 4.50731,4.469456 1.80827,2.121795 1.89796,2.185412 3.23857,2.297215 0.62644,0.05224 0.66506,0.06705 0.66506,0.254958 v 0.199493 h -3.21733 -3.21733 V 98.56984 c 0,-0.17643 0.0491,-0.205691 0.41878,-0.249472 1.33305,-0.15788 1.28934,-0.676968 -0.19791,-2.350338 -2.25918,-2.541911 -3.82326,-3.71965 -4.93982,-3.71965 h -0.28554 l 0.0257,2.561167 c 0.0241,2.397648 0.0367,2.579894 0.19808,2.854504 0.2394,0.407513 0.62534,0.60783 1.27089,0.659648 0.50561,0.04059 0.54645,0.05881 0.54645,0.243939 v 0.200075 h -3.00567 -3.00567 z m 21.336,-0.01113 c 0,-0.174349 0.0411,-0.211749 0.23283,-0.212139 0.74148,-0.0015 1.39502,-0.460965 1.71557,-1.206097 0.0995,-0.231232 1.13281,-3.016624 2.2963,-6.189759 1.90553,-5.196857 2.10733,-5.796642 2.03363,-6.044504 l -0.0818,-0.275167 h 0.94937 0.94938 l 2.31618,6.1595 c 1.27391,3.387725 2.40167,6.33095 2.50614,6.5405 0.33269,0.667298 0.87278,1.014091 1.58158,1.015527 0.19178,4.24e-4 0.23283,0.03779 0.23283,0.212139 v 0.211667 h -3.048 -3.048 v -0.211667 c 0,-0.207396 0.0132,-0.211707 0.65617,-0.213686 0.87179,-0.0027 1.29054,-0.10865 1.53101,-0.387416 0.26397,-0.306022 0.25623,-0.33786 -0.74261,-3.05087 l -0.83747,-2.274694 h -2.3031 -2.30309 l -0.70868,1.905 c -1.0639,2.859891 -1.08451,2.928547 -0.96549,3.215902 0.14248,0.343976 0.58028,0.522078 1.41069,0.573885 0.67352,0.04202 0.70657,0.05343 0.70657,0.243814 v 0.199732 h -2.54 -2.54 z m 8.80533,-6.975711 c 0,-0.05972 -0.68877,-1.915703 -1.79441,-4.835288 -0.10853,-0.286572 -0.091,-0.324815 -1.03148,2.250753 -0.44067,1.206836 -0.84143,2.299022 -0.89057,2.42708 l -0.0893,0.232833 h 1.9029 c 1.05584,0 1.9029,-0.03355 1.9029,-0.07538 z m 6.68867,6.986329 c 0,-0.192933 0.0291,-0.202579 0.72162,-0.238925 0.8271,-0.04341 1.11852,-0.195113 1.28444,-0.668622 0.0741,-0.211611 0.10183,-1.742495 0.10397,-5.749404 0.003,-5.231426 -0.004,-5.476246 -0.1617,-5.823692 -0.20801,-0.458298 -0.66997,-0.691081 -1.37683,-0.693781 -0.46235,-0.0018 -0.48683,-0.0125 -0.48683,-0.213526 v -0.211667 h 3.25966 3.25967 v 0.211667 0.211666 h -0.89172 c -1.04794,0 -1.39791,0.112772 -1.62149,0.522497 -0.20235,0.370825 -0.28848,10.950924 -0.094,11.544603 0.17054,0.520578 0.40427,0.566168 2.73419,0.533339 2.61674,-0.03687 2.70685,-0.08035 4.11414,-1.985335 0.20859,-0.282365 0.39946,-0.455104 0.50286,-0.455104 0.23219,0 0.25582,-0.05985 -0.65648,1.662922 l -0.82314,1.554411 h -4.93419 -4.93419 z m 11.51467,-0.01062 c 0,-0.182261 0.0382,-0.211731 0.27516,-0.212139 0.77987,-0.0013 1.28734,-0.344304 1.66696,-1.126588 0.61266,-1.26247 4.48649,-12.085834 4.40366,-12.303687 -0.0443,-0.116385 -0.0805,-0.229426 -0.0805,-0.251203 0,-0.02178 0.42685,-0.02882 0.94856,-0.01565 l 0.94855,0.02394 2.38455,6.328876 c 1.31151,3.480883 2.48146,6.475303 2.5999,6.654268 0.25108,0.379414 0.7013,0.618523 1.26761,0.673222 0.35587,0.03437 0.40216,0.06197 0.40216,0.239739 v 0.200894 h -3.048 -3.048 v -0.200568 c 0,-0.19579 0.0213,-0.201515 0.89276,-0.240274 1.70001,-0.07561 1.71505,-0.170803 0.53326,-3.376712 l -0.87111,-2.363112 h -2.2884 -2.28839 l -0.8327,2.255894 c -0.93396,2.530233 -0.98527,2.727883 -0.78681,3.030779 0.17255,0.263333 0.83687,0.47066 1.50809,0.47066 0.46903,0 0.49264,0.01014 0.49264,0.211666 v 0.211667 h -2.54 -2.54 z m 8.86937,-7.006166 c -0.69811,-1.906984 -1.88138,-4.973876 -1.91871,-4.97304 -0.0375,8.46e-4 -1.08574,2.823462 -1.85655,4.999211 -0.0171,0.04826 0.72905,0.07966 1.89289,0.07966 1.50111,0 1.91264,-0.02314 1.88237,-0.105833 z m 16.86929,7.006166 c 0,-0.182261 0.0382,-0.211731 0.27517,-0.212139 0.7615,-0.0013 1.29455,-0.350278 1.66549,-1.090328 0.1311,-0.261543 1.19891,-3.10166 2.37293,-6.311371 1.83398,-5.013988 2.12172,-5.864095 2.04317,-6.036483 -0.0503,-0.110356 -0.0914,-0.217903 -0.0914,-0.238995 0,-0.02109 0.42862,-0.03788 0.9525,-0.03731 l 0.9525,0.001 0.38882,1.036123 c 4.30232,11.464746 4.42664,11.782158 4.75443,12.139069 0.32067,0.349151 0.77339,0.53872 1.28657,0.53872 0.1745,0 0.21651,0.04107 0.21651,0.211667 v 0.211666 h -3.048 -3.048 V 98.5691 c 0,-0.195789 0.0213,-0.201514 0.89276,-0.240274 1.68267,-0.07484 1.71119,-0.219158 0.62578,-3.166736 -0.42681,-1.159081 -0.81368,-2.212802 -0.8597,-2.341599 l -0.0837,-0.234179 -2.29613,0.02251 -2.29613,0.02251 -0.86702,2.328334 c -0.47686,1.280583 -0.86842,2.42463 -0.87012,2.542327 -0.007,0.510717 0.63308,0.844339 1.62093,0.844339 0.46903,0 0.49263,0.01014 0.49263,0.211667 v 0.211666 h -2.54 -2.54 v -0.211666 z m 8.89,-6.958321 c 0,-0.07612 -1.77421,-4.772341 -1.8653,-4.937345 -0.0549,-0.09943 -0.0915,-0.07185 -0.16842,0.127 -0.10508,0.27153 -0.90274,2.45939 -1.4431,3.958167 l -0.32814,0.910166 h 1.90249 c 1.04636,0 1.90247,-0.02609 1.90247,-0.05799 z m 7.28134,6.966267 c 0,-0.1802 0.0488,-0.21043 0.42241,-0.261819 0.54814,-0.07539 0.92641,-0.339364 1.0921,-0.762127 0.23056,-0.588258 0.20072,-10.964934 -0.0328,-11.424536 -0.22805,-0.448743 -0.53701,-0.655905 -1.05202,-0.705391 -0.3841,-0.03691 -0.42964,-0.06258 -0.42964,-0.242178 V 84.96905 h 4.953 4.953 v 1.312333 c 0,1.248224 -0.008,1.312334 -0.16642,1.312334 -0.13524,0 -0.17669,-0.07747 -0.22128,-0.413552 -0.0777,-0.585853 -0.35217,-1.035064 -0.75605,-1.237448 -0.31076,-0.155723 -0.53699,-0.171413 -2.81442,-0.195204 l -2.4765,-0.02587 v 2.629369 2.62937 h 2.33105 c 2.59388,0 2.78465,-0.03239 3.0868,-0.524071 0.0947,-0.154144 0.19569,-0.423137 0.22435,-0.597762 0.0386,-0.235274 0.0932,-0.3175 0.21062,-0.3175 0.15031,0 0.15851,0.100757 0.15851,1.947333 0,1.890889 -0.005,1.947333 -0.16933,1.947333 -0.12973,0 -0.16933,-0.05644 -0.16933,-0.241366 0,-0.622428 -0.40697,-1.223032 -0.92653,-1.367364 -0.16562,-0.04601 -1.30313,-0.08387 -2.52777,-0.08413 l -2.22663,-5.08e-4 0.0253,2.899834 c 0.023,2.632754 0.0394,2.920605 0.17842,3.125372 0.20638,0.303973 0.65388,0.50275 1.25444,0.557207 0.45361,0.04113 0.49743,0.06272 0.49743,0.245013 v 0.199908 h -2.70933 -2.70933 V 98.565956 Z M 76.643001,82.974395 c 0.255372,-0.389741 1.754429,-2.441686 2.054471,-2.812193 0.689737,-0.851749 1.88705,-0.937393 1.88705,-0.134982 0,0.523544 -0.246109,0.748779 -2.470717,2.261178 -1.364606,0.927726 -1.745632,1.105439 -1.470804,0.685997 z"
         style="display:inline;fill:#494949;stroke-width:0.0846667" />
      <path
         id="path1163"
         d="M 2.1831899,134.10989 C 2.0202066,134.09137 1.4487066,134.03523 0.91318996,133.98515 -10.14915,132.95058 -20.253988,126.50808 -25.105731,117.39638 c -3.452379,-6.48366 -4.027634,-14.36553 -1.545982,-21.182291 5.774235,-15.86105 25.3397893,-24.259596 42.974846,-18.447022 15.386133,5.071321 24.123002,19.207092 20.699703,33.490983 -2.835226,11.83012 -13.866475,20.87084 -27.6429795,22.65494 -1.3268011,0.17182 -6.2358421,0.30614 -7.1966666,0.1969 z m -3.7864583,-8.44222 c 1.24238422,-0.39898 1.67802131,-0.733 4.1482661,-3.18067 l 2.2668077,-2.2461 2.2205256,2.20614 c 2.747893,2.73007 3.212131,3.05644 4.807412,3.37969 3.942163,0.79878 7.522108,-2.78477 6.733205,-6.73999 -0.317861,-1.59362 -0.609128,-2.01233 -3.253435,-4.67691 l -2.333655,-2.35155 2.197499,-2.22045 c 1.208625,-1.22125 2.511617,-2.52257 2.895538,-2.89182 l 0.698039,-0.67137 1.630294,1.60902 c 1.175149,1.15982 1.795756,1.70635 2.222962,1.95765 2.577145,1.51595 5.899726,1.01745 7.591751,-1.13903 3.35429,-4.27503 -0.319558,-10.324114 -5.596119,-9.214155 -1.503268,0.316222 -2.194017,0.771625 -4.219329,2.781775 l -1.631032,1.61882 -2.877585,-2.87665 c -1.582673,-1.582163 -2.868009,-2.904964 -2.856303,-2.939563 0.01171,-0.0346 0.994511,-1.044407 2.18401,-2.244017 2.198127,-2.216812 2.640662,-2.757388 3.018481,-3.687203 0.647433,-1.593344 0.582661,-3.172788 -0.196336,-4.787548 C 16.685826,84.53069 13.245462,83.40143 10.31119,84.814312 9.6205876,85.146844 9.494905,85.256818 7.1991116,87.537426 L 4.8066992,89.914014 2.5001117,87.623201 c -2.99462951,-2.974148 -3.5309243,-3.302886 -5.5368232,-3.393959 -4.440665,-0.201617 -7.4262455,4.344152 -5.4429456,8.28729 0.4059741,0.807144 0.6008226,1.031442 2.9500626,3.395909 l 2.1663525,2.180395 -2.8980604,2.898064 -2.8980612,2.89806 -1.5888894,-1.57311 c -2.465177,-2.440685 -3.364546,-2.913376 -5.52589,-2.904298 -4.29676,0.01805 -6.922266,4.311958 -5.030828,8.227728 1.555425,3.22013 5.882042,4.09733 8.844755,1.79324 0.253956,-0.1975 1.100614,-0.99073 1.881461,-1.76274 l 1.4197199,-1.40365 2.8958997,2.8959 2.8958996,2.8959 -2.374088,2.39406 c -2.2638291,2.28287 -2.3903965,2.42748 -2.7252608,3.11372 -2.2390544,4.58855 2.0473636,9.64855 6.8633162,8.10196 z M -4.42081,124.13322 c -2.4927094,-0.6936 -3.7260953,-3.48582 -2.5581745,-5.79136 0.2797692,-0.55228 0.562218,-0.86796 2.5571695,-2.85805 l 2.2426617,-2.2372 2.90242239,2.90038 2.90242321,2.90039 -2.1817516,2.17077 c -2.28789901,2.27639 -2.6881768,2.59849 -3.5665028,2.86993 -0.6203002,0.19171 -1.6956126,0.21283 -2.2982479,0.0451 z m 16.256,-1.7e-4 c -0.932433,-0.25986 -1.234725,-0.49881 -3.5786933,-2.82884 l -2.2663599,-2.25287 2.9013599,-2.90335 2.9013593,-2.90336 2.255172,2.26638 c 2.801539,2.81545 3.034537,3.20829 2.932471,4.9442 -0.150416,2.55824 -2.678532,4.36533 -5.145309,3.67784 z m -9.9450398,-9.18871 c -1.5809409,-1.58145 -2.85708091,-2.89444 -2.83586599,-2.91774 0.30931104,-0.33974 5.71980989,-5.72155 5.75204749,-5.72155 0.024635,0 1.3397721,1.2954 2.9225248,2.87866 l 2.8777325,2.87867 -2.8777325,2.87867 c -1.5827527,1.58326 -2.8972027,2.87866 -2.9209999,2.87866 -0.023797,0 -1.3367647,-1.29392 -2.9177064,-2.87537 z m -6.9678533,-6.96785 -2.8996462,-2.90056 2.8823387,-2.87794 c 1.5852859,-1.58287 2.8920236,-2.885984 2.90386,-2.895812 0.011837,-0.0098 1.32475732,1.285782 2.91760146,2.879122 l 2.89607914,2.89699 -2.90029385,2.89938 -2.90029305,2.89938 z m 13.9698348,-1.7e-4 -2.8998113,-2.90072 2.8826688,-2.87778 c 1.5854678,-1.58278 2.8922798,-2.885819 2.9040258,-2.895647 0.01175,-0.0098 1.324592,1.285777 2.917436,2.879127 l 2.896079,2.89699 -2.900294,2.89938 -2.900293,2.89938 z m -26.0753697,1.00006 c -1.807325,-0.41159 -3.066046,-2.01199 -3.069234,-3.90238 -0.0045,-2.6982 2.466225,-4.5793 5.110232,-3.89062 1.04641,0.27255 1.349957,0.4899 3.125283,2.23779 l 1.674854,1.64896 -1.37852,1.38605 c -0.758186,0.76232 -1.61794,1.5588 -1.910564,1.76994 -0.994331,0.71746 -2.39604,1.01353 -3.552051,0.75026 z m 42.057094,-0.01 c -1.111193,-0.24064 -1.503217,-0.51189 -3.285719,-2.27348 l -1.634719,-1.61555 1.677052,-1.65994 c 2.110806,-2.08927 2.58659,-2.35473 4.229301,-2.35966 3.244483,-0.01 5.102855,3.56846 3.279778,6.31504 -0.892154,1.34409 -2.552877,1.9645 -4.265693,1.59359 z M 1.8867008,100.97089 -0.99118856,98.092067 1.908334,95.192545 l 2.8995226,-2.899523 2.8995225,2.899523 2.8995229,2.899522 -2.8778897,2.878823 c -1.5828382,1.58335 -2.8973585,2.87882 -2.9211557,2.87882 -0.023797,0 -1.3383175,-1.29547 -2.9211558,-2.87882 z m -6.2776446,-6.285506 c -2.1841231,-2.196094 -2.5525577,-2.632686 -2.7902789,-3.30646 -1.1549532,-3.273485 1.9335403,-6.42389 5.196939,-5.301116 0.7925774,0.272686 1.16827809,0.58483 3.4265709,2.846893 l 2.1800972,2.183738 -2.90105587,2.900142 -2.90105503,2.900141 z M 8.8936023,94.008797 5.9943481,91.10738 8.2335511,88.863713 c 2.4580859,-2.462986 2.7704299,-2.699616 3.8678459,-2.930272 3.016665,-0.634044 5.646123,2.271218 4.732163,5.22852 -0.271447,0.878326 -0.593547,1.278604 -2.869932,3.566503 l -2.170772,2.181752 z"
         style="display:inline;fill:#951923;stroke-width:0.0846667" />
    </g>
  </g>
</svg>
